<svg width="159" height="18" viewBox="0 0 159 18" fill="none" xmlns="http://www.w3.org/2000/svg">
<path d="M23.208 0.264023L18.84 17.4H14.712L12.384 8.40002C12.336 8.22402 12.272 7.96002 12.192 7.60802C12.128 7.25602 12.048 6.87202 11.952 6.45602C11.872 6.04002 11.792 5.64802 11.712 5.28002C11.648 4.91202 11.608 4.61602 11.592 4.39202C11.576 4.61602 11.528 4.91202 11.448 5.28002C11.384 5.64802 11.312 6.04002 11.232 6.45602C11.152 6.85602 11.072 7.24002 10.992 7.60802C10.912 7.96002 10.848 8.23202 10.8 8.42402L8.496 17.4H4.368L0 0.264023H3.576L5.76 9.62402C5.856 9.99202 5.96 10.456 6.072 11.016C6.184 11.576 6.288 12.136 6.384 12.696C6.48 13.256 6.552 13.728 6.6 14.112C6.648 13.712 6.72 13.24 6.816 12.696C6.912 12.136 7.008 11.6 7.104 11.088C7.216 10.56 7.312 10.152 7.392 9.86402L9.888 0.264023H13.32L15.816 9.86402C15.896 10.152 15.984 10.56 16.08 11.088C16.192 11.6 16.296 12.136 16.392 12.696C16.488 13.256 16.56 13.728 16.608 14.112C16.656 13.712 16.728 13.24 16.824 12.696C16.92 12.136 17.024 11.584 17.136 11.04C17.264 10.48 17.368 10.008 17.448 9.62402L19.632 0.264023H23.208ZM40.6808 8.80802C40.6808 10.584 40.3848 12.136 39.7928 13.464C39.2168 14.776 38.3208 15.8 37.1048 16.536C35.9048 17.272 34.3768 17.64 32.5208 17.64C30.6648 17.64 29.1288 17.272 27.9128 16.536C26.7128 15.8 25.8168 14.768 25.2248 13.44C24.6488 12.112 24.3608 10.56 24.3608 8.78402C24.3608 7.00802 24.6488 5.46402 25.2248 4.15202C25.8168 2.84002 26.7128 1.82402 27.9128 1.10402C29.1288 0.368024 30.6728 2.38419e-05 32.5448 2.38419e-05C34.4008 2.38419e-05 35.9288 0.368024 37.1288 1.10402C38.3288 1.82402 39.2168 2.84802 39.7928 4.17602C40.3848 5.48802 40.6808 7.03202 40.6808 8.80802ZM28.1768 8.80802C28.1768 10.6 28.5208 12.016 29.2088 13.056C29.8968 14.08 31.0008 14.592 32.5208 14.592C34.0728 14.592 35.1848 14.08 35.8568 13.056C36.5288 12.016 36.8648 10.6 36.8648 8.80802C36.8648 7.01602 36.5288 5.60802 35.8568 4.58402C35.1848 3.54402 34.0808 3.02402 32.5448 3.02402C31.0088 3.02402 29.8968 3.54402 29.2088 4.58402C28.5208 5.60802 28.1768 7.01602 28.1768 8.80802ZM65.0439 0.264023L60.6759 17.4H56.5479L54.2199 8.40002C54.1719 8.22402 54.1079 7.96002 54.0279 7.60802C53.9639 7.25602 53.8839 6.87202 53.7879 6.45602C53.7079 6.04002 53.6279 5.64802 53.5479 5.28002C53.4839 4.91202 53.4439 4.61602 53.4279 4.39202C53.4119 4.61602 53.3639 4.91202 53.2839 5.28002C53.2199 5.64802 53.1479 6.04002 53.0679 6.45602C52.9879 6.85602 52.9079 7.24002 52.8279 7.60802C52.7479 7.96002 52.6839 8.23202 52.6359 8.42402L50.3319 17.4H46.2039L41.8359 0.264023H45.4119L47.5959 9.62402C47.6919 9.99202 47.7959 10.456 47.9079 11.016C48.0199 11.576 48.1239 12.136 48.2199 12.696C48.3159 13.256 48.3879 13.728 48.4359 14.112C48.4839 13.712 48.5559 13.24 48.6519 12.696C48.7479 12.136 48.8439 11.6 48.9399 11.088C49.0519 10.56 49.1479 10.152 49.2279 9.86402L51.7239 0.264023H55.1559L57.6519 9.86402C57.7319 10.152 57.8199 10.56 57.9159 11.088C58.0279 11.6 58.1319 12.136 58.2279 12.696C58.3239 13.256 58.3959 13.728 58.4439 14.112C58.4919 13.712 58.5639 13.24 58.6599 12.696C58.7559 12.136 58.8599 11.584 58.9719 11.04C59.0999 10.48 59.2039 10.008 59.2839 9.62402L61.4679 0.264023H65.0439ZM82.5167 8.80802C82.5167 10.584 82.2207 12.136 81.6287 13.464C81.0527 14.776 80.1567 15.8 78.9407 16.536C77.7407 17.272 76.2127 17.64 74.3567 17.64C72.5007 17.64 70.9647 17.272 69.7487 16.536C68.5487 15.8 67.6527 14.768 67.0607 13.44C66.4847 12.112 66.1967 10.56 66.1967 8.78402C66.1967 7.00802 66.4847 5.46402 67.0607 4.15202C67.6527 2.84002 68.5487 1.82402 69.7487 1.10402C70.9647 0.368024 72.5087 2.38419e-05 74.3807 2.38419e-05C76.2367 2.38419e-05 77.7647 0.368024 78.9647 1.10402C80.1647 1.82402 81.0527 2.84802 81.6287 4.17602C82.2207 5.48802 82.5167 7.03202 82.5167 8.80802ZM70.0127 8.80802C70.0127 10.6 70.3567 12.016 71.0447 13.056C71.7327 14.08 72.8367 14.592 74.3567 14.592C75.9087 14.592 77.0207 14.08 77.6927 13.056C78.3647 12.016 78.7007 10.6 78.7007 8.80802C78.7007 7.01602 78.3647 5.60802 77.6927 4.58402C77.0207 3.54402 75.9167 3.02402 74.3807 3.02402C72.8447 3.02402 71.7327 3.54402 71.0447 4.58402C70.3567 5.60802 70.0127 7.01602 70.0127 8.80802ZM91.0583 0.264023C93.3943 0.264023 95.1143 0.688024 96.2183 1.53602C97.3383 2.38402 97.8983 3.67202 97.8983 5.40002C97.8983 6.18402 97.7463 6.87202 97.4423 7.46402C97.1543 8.04002 96.7623 8.53602 96.2663 8.95202C95.7863 9.35202 95.2663 9.68002 94.7063 9.93602L99.7463 17.4H95.7143L91.6343 10.824H89.6903V17.4H86.0663V0.264023H91.0583ZM90.7943 3.24002H89.6903V7.87202H90.8663C92.0663 7.87202 92.9223 7.67202 93.4343 7.27202C93.9623 6.87202 94.2263 6.28002 94.2263 5.49602C94.2263 4.68002 93.9463 4.10402 93.3863 3.76802C92.8263 3.41602 91.9623 3.24002 90.7943 3.24002ZM117.462 8.80802C117.462 10.584 117.166 12.136 116.574 13.464C115.998 14.776 115.102 15.8 113.886 16.536C112.686 17.272 111.158 17.64 109.302 17.64C107.446 17.64 105.91 17.272 104.694 16.536C103.494 15.8 102.598 14.768 102.006 13.44C101.43 12.112 101.142 10.56 101.142 8.78402C101.142 7.00802 101.43 5.46402 102.006 4.15202C102.598 2.84002 103.494 1.82402 104.694 1.10402C105.91 0.368024 107.454 2.38419e-05 109.326 2.38419e-05C111.182 2.38419e-05 112.71 0.368024 113.91 1.10402C115.11 1.82402 115.998 2.84802 116.574 4.17602C117.166 5.48802 117.462 7.03202 117.462 8.80802ZM104.958 8.80802C104.958 10.6 105.302 12.016 105.99 13.056C106.678 14.08 107.782 14.592 109.302 14.592C110.854 14.592 111.966 14.08 112.638 13.056C113.31 12.016 113.646 10.6 113.646 8.80802C113.646 7.01602 113.31 5.60802 112.638 4.58402C111.966 3.54402 110.862 3.02402 109.326 3.02402C107.79 3.02402 106.678 3.54402 105.99 4.58402C105.302 5.60802 104.958 7.01602 104.958 8.80802ZM136.564 8.80802C136.564 10.584 136.268 12.136 135.676 13.464C135.1 14.776 134.204 15.8 132.988 16.536C131.788 17.272 130.26 17.64 128.404 17.64C126.548 17.64 125.012 17.272 123.796 16.536C122.596 15.8 121.7 14.768 121.108 13.44C120.532 12.112 120.244 10.56 120.244 8.78402C120.244 7.00802 120.532 5.46402 121.108 4.15202C121.7 2.84002 122.596 1.82402 123.796 1.10402C125.012 0.368024 126.556 2.38419e-05 128.428 2.38419e-05C130.284 2.38419e-05 131.812 0.368024 133.012 1.10402C134.212 1.82402 135.1 2.84802 135.676 4.17602C136.268 5.48802 136.564 7.03202 136.564 8.80802ZM124.06 8.80802C124.06 10.6 124.404 12.016 125.092 13.056C125.78 14.08 126.884 14.592 128.404 14.592C129.956 14.592 131.068 14.08 131.74 13.056C132.412 12.016 132.748 10.6 132.748 8.80802C132.748 7.01602 132.412 5.60802 131.74 4.58402C131.068 3.54402 129.964 3.02402 128.428 3.02402C126.892 3.02402 125.78 3.54402 125.092 4.58402C124.404 5.60802 124.06 7.01602 124.06 8.80802ZM147.361 17.4L143.233 3.96002H143.137C143.153 4.28002 143.177 4.76002 143.209 5.40002C143.241 6.04002 143.273 6.72802 143.305 7.46402C143.337 8.20002 143.353 8.85602 143.353 9.43202V17.4H140.113V0.264023H145.057L149.113 13.368H149.185L153.481 0.264023H158.425V17.4H155.041V9.28802C155.041 8.74402 155.049 8.12002 155.065 7.41602C155.097 6.71202 155.121 6.04802 155.137 5.42402C155.169 4.78402 155.193 4.30402 155.209 3.98402H155.113L150.697 17.4H147.361Z" fill="black"/>
</svg>
